<svg id="Layer_1" enable-background="new 0 0 512 512" height="512" viewBox="0 0 512 512" width="512" xmlns="http://www.w3.org/2000/svg"><path d="m409.96 51.68v408.64c0 20.25-16.42 36.68-36.68 36.68h-234.56c-20.26 0-36.68-16.43-36.68-36.68v-408.64c0-20.26 16.42-36.68 36.68-36.68h234.56c20.26 0 36.68 16.42 36.68 36.68z" fill="#f2f4f9"/><path d="m409.96 51.68v408.64c0 20.25-16.42 36.68-36.68 36.68h-117.28v-482h117.28c20.26 0 36.68 16.42 36.68 36.68z" fill="#c2d3ee"/><path d="m373.28 0h-234.56c-28.5 0-51.68 23.18-51.68 51.68v408.64c0 28.49 23.18 51.68 51.68 51.68h234.56c28.5 0 51.68-23.19 51.68-51.68v-408.64c0-28.5-23.18-51.68-51.68-51.68zm21.68 460.32c0 11.95-9.72 21.68-21.68 21.68h-234.56c-11.96 0-21.68-9.73-21.68-21.68v-408.64c0-11.96 9.72-21.68 21.68-21.68h37.59v15.71c0 8.29 6.72 15 15 15h129.38c8.28 0 15-6.71 15-15v-15.71h37.59c11.96 0 21.68 9.72 21.68 21.68z" fill="#393c47"/><path d="m355.37 198.65v109.61c0 5.42-2.93 10.43-7.66 13.08l-84.38 47.31c-2.27 1.28-4.8 1.92-7.33 1.92s-5.06-.64-7.34-1.92l-84.37-47.31c-4.73-2.65-7.66-7.66-7.66-13.08v-109.61z" fill="#ffe94e"/><path d="m355.37 198.65v109.61c0 5.42-2.93 10.43-7.66 13.08l-84.38 47.31c-2.27 1.28-4.8 1.92-7.33 1.92v-171.92z" fill="#ffc711"/><path d="m313.06 447.27c0 8.28-6.72 15-15 15h-84.12c-8.28 0-15-6.72-15-15 0-8.29 6.72-15 15-15h84.12c8.28 0 15 6.71 15 15z" fill="#393c47"/><path d="m355.37 198.65-99.37 50-99.37-50c0-5.42 2.93-10.43 7.66-13.08l84.37-47.31c2.28-1.28 4.81-1.92 7.34-1.92s5.05.64 7.33 1.92l84.38 47.31c4.73 2.65 7.66 7.66 7.66 13.08z" fill="#ffc711"/><path d="m355.37 198.65-99.37 50v-112.31c2.53 0 5.05.64 7.33 1.92l84.38 47.31c4.73 2.65 7.66 7.66 7.66 13.08z" fill="#ff961d"/><g fill="#232533"><path d="m298.06 462.27h-42.06v-30h42.06c8.28 0 15 6.71 15 15 0 8.28-6.72 15-15 15z"/><path d="m424.96 51.68v408.64c0 28.49-23.18 51.68-51.68 51.68h-117.28v-30h117.28c11.96 0 21.68-9.73 21.68-21.68v-408.64c0-11.96-9.72-21.68-21.68-21.68h-37.59v15.71c0 8.29-6.72 15-15 15h-64.69v-60.71h117.28c28.5 0 51.68 23.18 51.68 51.68z"/></g></svg>