<?xml version="1.0" encoding="iso-8859-1"?>
<!-- Generator: Adobe Illustrator 19.0.0, SVG Export Plug-In . SVG Version: 6.00 Build 0)  -->
<svg version="1.1" id="Capa_1" xmlns="http://www.w3.org/2000/svg" xmlns:xlink="http://www.w3.org/1999/xlink" x="0px" y="0px"
	 viewBox="0 0 512 512" style="enable-background:new 0 0 512 512;" xml:space="preserve">
<g>
	<g>
		<path d="M467,0H45C20.355,0,0.274,19.913,0.003,44.495C0.001,44.593,0,44.69,0,44.787C0,57.362,0,334.325,0,347
			c0,25.179,20.545,45,45,45h136v30h-45c-24.813,0-45,20.187-45,45v30c0,8.284,6.716,15,15,15h300c8.284,0,15-6.716,15-15v-30
			c0-24.813-20.187-45-45-45h-45v-30h136c24.451,0,45-19.85,45-45v-30V45C512,20.187,491.813,0,467,0z M376,452
			c8.271,0,15,6.729,15,15v15H121v-15c0-8.271,6.729-15,15-15H376z M211,422v-30h90v30H211z M482,347c0,8.271-6.729,15-15,15H45
			c-8.271,0-15-6.729-15-15v-15h452V347z M482,302H30V45c0-8.271,6.729-15,15-15h422c8.271,0,15,6.729,15,15V302z"/>
	</g>
</g>
<g>
	<g>
		<path d="M209.927,250.57c-4.283-10.708-39.274-98.185-43.621-109.052C161.32,129.054,149.424,121,136,121
			s-25.32,8.054-30.307,20.519c-4.338,10.844-39.358,98.395-43.621,109.052c-3.076,7.691,0.665,16.421,8.357,19.497
			c7.693,3.076,16.422-0.665,19.498-8.356L110.212,211h51.576l20.285,50.712c3.077,7.691,11.804,11.433,19.498,8.356
			C209.263,266.991,213.004,258.262,209.927,250.57z M122.212,181l11.336-28.34c0.181-0.454,0.664-1.66,2.452-1.66
			c1.788,0,2.271,1.206,2.452,1.66L149.788,181H122.212z"/>
	</g>
</g>
<g>
	<g>
		<path d="M354.32,243.52L305.541,211H316c24.813,0,45-20.187,45-45s-20.187-45-45-45h-60c-8.284,0-15,6.716-15,15
			c0,9.339,0,69.375,0,120c0,8.284,6.716,15,15,15s15-6.716,15-15v-31.972l66.68,44.453c6.891,4.595,16.205,2.734,20.801-4.16
			C363.076,257.428,361.213,248.115,354.32,243.52z M271,151h45c8.271,0,15,6.729,15,15s-6.729,15-15,15h-45V151z"/>
	</g>
</g>
<g>
	<g>
		<path d="M436,91h-15V76c0-8.284-6.716-15-15-15s-15,6.716-15,15v15h-15c-8.284,0-15,6.716-15,15s6.716,15,15,15h15v15
			c0,8.284,6.716,15,15,15s15-6.716,15-15v-15h15c8.284,0,15-6.716,15-15S444.284,91,436,91z"/>
	</g>
</g>
<g>
</g>
<g>
</g>
<g>
</g>
<g>
</g>
<g>
</g>
<g>
</g>
<g>
</g>
<g>
</g>
<g>
</g>
<g>
</g>
<g>
</g>
<g>
</g>
<g>
</g>
<g>
</g>
<g>
</g>
</svg>
