<svg height="512" viewBox="0 0 52 60" width="512" xmlns="http://www.w3.org/2000/svg"><g id="Page-1" fill="none" fill-rule="evenodd"><g id="023---AR-Card" fill-rule="nonzero"><path id="Shape" d="m26 59h22.29c.7356881.0002467 1.4121173-.4034236 1.7611934-1.0510214s.3144351-1.4345579-.0901934-2.0489786l-14.092-21.417c-.5383867-.9185533-1.5232933-1.4829337-2.588-1.483h-14.562c-1.0647067.0000663-2.0496133.5644467-2.588 1.483l-14.092 21.417c-.40462853.6144207-.43926949 1.4013808-.09019337 2.0489786s1.02550524 1.0512681 1.76119337 1.0510214z" fill="#02a9f4"/><path id="Shape" d="m49.961 55.9-14.092-21.417c-.5383867-.9185533-1.5232933-1.4829337-2.588-1.483h-3c1.0647067.0000663 2.0496133.5644467 2.588 1.483l14.092 21.417c.4046285.6144207.4392695 1.4013808.0901934 2.0489786s-1.0255053 1.0512681-1.7611934 1.0510214h3c.7356881.0002467 1.4121173-.4034236 1.7611934-1.0510214s.3144351-1.4345579-.0901934-2.0489786z" fill="#0377bc"/><path id="Shape" d="m13 8v14l13 7 13-7v-14l-13-7z" fill="#ffdc00"/><path id="Shape" d="m26 1-1.5.808 11.5 6.192v14l-11.5 6.192 1.5.808 13-7v-14z" fill="#fec108"/><path id="Shape" d="m29.526 11.969-3.526 1.896-3.526-1.9c-.4865629-.261783-1.093217-.0795629-1.355.407s-.0795629 1.093217.407 1.355l3.474 1.873v2.4c0 .5522847.4477153 1 1 1s1-.4477153 1-1v-2.4l3.474-1.867c.4865629-.261783.668783-.8684371.407-1.355s-.8684371-.668783-1.355-.407z" fill="#ff9801"/><path id="Shape" d="m17.474 9.269-4-2.15c-.4865629-.26178296-1.093217-.07956285-1.355.40700001-.2617829.48656286-.0795629 1.09321701.407 1.35499999l4 2.15c.4865629.261783 1.093217.0795629 1.355-.407s.0795629-1.09321703-.407-1.355z" fill="#ff9801"/><path id="Shape" d="m39.881 7.526c-.1256309-.23373831-.3390132-.40795869-.5931576-.48429579-.2541445-.07633711-.5282093-.04853075-.7618424.07729579l-4 2.15c-.4865629.26178297-.668783.8684371-.407 1.355s.8684371.668783 1.355.407l4-2.15c.2337383-.12563094.4079587-.33901324.4842958-.59315765.0763371-.2541444.0485307-.52820927-.0772958-.76184235z" fill="#ff9801"/><path id="Shape" d="m26 23c-.5522847 0-1 .4477153-1 1v5c0 .5522847.4477153 1 1 1s1-.4477153 1-1v-5c0-.5522847-.4477153-1-1-1z" fill="#ff9801"/><path id="Shape" d="m24 39-1 4h-6.33l2.33-4z" fill="#e91e63"/><path id="Shape" d="m29 43h-6l1-4h4z" fill="#f5f5f5"/><path id="Shape" d="m35.33 43h-6.33l-1-4h5z" fill="#e91e63"/><path id="Shape" d="m37.67 47h-7.67l-1-4h6.33z" fill="#f5f5f5"/><path id="Shape" d="m23 43-1 4h-7.67l2.34-4z" fill="#f5f5f5"/><path id="Shape" d="m22 47-1 4h-9l2.33-4z" fill="#e91e63"/><path id="Shape" d="m31 51h-10l1-4h8z" fill="#f5f5f5"/><path id="Shape" d="m40 51h-9l-1-4h7.67z" fill="#e91e63"/><path id="Shape" d="m30 47h-8l1-4h6z" fill="#e91e63"/><g fill="#000"><path id="Shape" d="m40.172 39.2 6.219-15.839c.1319749-.332955.0758075-.7110666-.1472522-.9912822-.2230596-.2802156-.5789468-.4197417-.933017-.3657908-.3540701.053951-.6522512.2931398-.7817308.627073l-5.7 14.525-2.094-3.183c-.7220397-1.2215647-2.0350004-1.9715565-3.454-1.973h-14.562c-1.3996365.000756-2.696754.7341073-3.419 1.933l-2.122 3.226-5.7-14.524c-.12947963-.3339332-.42766068-.573122-.78173083-.627073-.35407016-.0539509-.70995734.0855752-.933017.3657908-.22305967.2802156-.27922709.6583272-.14725217.9912822l6.212 15.835-10.628 16.151c-.60673835.9221197-.65808304 2.1029426-.13367478 3.074247.52440825.9713043 1.53984772 1.5761694 2.64367478 1.574753h44.58c1.1038271.0014164 2.1192665-.6034487 2.6436748-1.574753.5244082-.9713044.4730635-2.1521273-.1336748-3.074247zm9 18.27c-.1705658.3273518-.5109079.5307835-.88.526h-44.582c-.36742179-.0003021-.70508585-.2020694-.87942991-.5254932-.17434406-.3234239-.15728484-.7164074.04442991-1.0235068l9.847-14.97.347.884c.2029696.512065.781816.7635752 1.2946368.562523.5128209-.2010522.7664952-.7789535.5673632-1.292523l-.863-2.2 2.926-4.448c.3611649-.6091951 1.0167919-.9828074 1.725-.983h14.562c.7269491.0063192 1.3952578.4001371 1.753 1.033l2.9 4.405-.863 2.2c-.1319749.332955-.0758075.7110666.1472522.9912822.2230596.2802156.5789468.4197417.933017.3657908.3540701-.053951.6522512-.2931398.7817308-.627073l.346-.883 9.848 14.969c.2047337.3049499.2213414.6989008.043 1.02z"/><path id="Shape" d="m26.474.12c-.2959236-.15930021-.6520764-.15930021-.948 0l-13 7c-.3237997.17430628-.525807.51226517-.526.88v14c.000193.3677348.2022003.7056937.526.88l13 7c.2959236.1593002.6520764.1593002.948 0l13-7c.3237997-.1743063.525807-.5122652.526-.88v-14c-.000193-.36773483-.2022003-.70569372-.526-.88zm11.526 21.28-12 6.464-12-6.464v-12.8l12-6.464 12 6.464z"/><path id="Shape" d="m33.864 38.5c-.1782705-.3087753-.5074582-.4992774-.864-.5h-14c-.3565418.0007226-.6857295.1912247-.864.5l-7 12c-.178453.3090879-.1786463.6898553-.0005074.9991243.1781389.3092689.5076037.5001532.8645074.5008757h28c.3569037-.0007225.6863685-.1916068.8645074-.5008757.1781389-.309269.1779456-.6900364-.0005074-.9991243zm-9.083 1.5h2.438l.5 2h-3.438zm-1 4h4.438l.5 2h-5.438zm-3.562 6h-6.478l1.167-2h5.811zm1-4h-5.145l1.167-2h4.478zm-2.811-4 1.166-2h3.145l-.5 2zm3.873 8 .5-2h6.438l.5 2zm7-10h3.145l1.166 2h-3.811zm1 4h4.478l1.167 2h-5.145zm1.5 6-.5-2h5.811l1.167 2z"/><path id="Shape" d="m2.635 13.069c-.24789518.0967704-.44699512.2883569-.55322514.5323481s-.11082756.5202611-.01277486.7676519l1.57 4c.12264552.3433505.42243938.5927399.78237853.6508369.35993915.0580971.72297161-.0843068.94741365-.3716345.22444205-.2873278.2747186-.6740366.13120782-1.0092024l-1.569-4c-.09602741-.2476413-.28662926-.4469063-.5297606-.553839-.24313135-.1069328-.51881558-.1127473-.7662394-.016161z"/><path id="Shape" d="m48.069 13.635-1.569 4c-.1435108.3351658-.0932342.7218746.1312078 1.0092024.2244421.2873277.5874745.4297316.9474137.3716345.3599391-.058097.659733-.3074864.7823785-.6508369l1.57-4c.1319749-.332955.0758075-.7110666-.1472522-.9912822-.2230596-.2802156-.5789468-.4197417-.933017-.3657908-.3540701.053951-.6522512.2931398-.7817308.627073z"/></g></g></g></svg>