<svg width="512" height="512" xmlns="http://www.w3.org/2000/svg">

 <g>
  <title>background</title>
  <rect fill="none" id="canvas_background" height="402" width="582" y="-1" x="-1"/>
 </g>
 <g>
  <title>Layer 1</title>
  <path id="svg_4" fill="#ffe94e" d="m355.37,198.65l0,109.61c0,5.42 -2.93,10.43 -7.66,13.08l-84.38,47.31c-2.27,1.28 -4.8,1.92 -7.33,1.92s-5.06,-0.64 -7.34,-1.92l-84.37,-47.31c-4.73,-2.65 -7.66,-7.66 -7.66,-13.08l0,-109.61l198.74,0z"/>
  <path id="svg_5" fill="#ffc711" d="m355.37,198.65l0,109.61c0,5.42 -2.93,10.43 -7.66,13.08l-84.38,47.31c-2.27,1.28 -4.8,1.92 -7.33,1.92l0,-171.92l99.37,0z"/>
  <path id="svg_7" fill="#ffc711" d="m356.37,199.65l-99.37,50l-99.37,-50c0,-5.42 2.93,-10.43 7.66,-13.08l84.37,-47.31c2.28,-1.28 4.81,-1.92 7.34,-1.92s5.05,0.64 7.33,1.92l84.38,47.31c4.73,2.65 7.66,7.66 7.66,13.08z"/>
  <path id="svg_8" fill="#ff961d" d="m355.37,198.65l-99.37,50l0,-112.31c2.53,0 5.05,0.64 7.33,1.92l84.38,47.31c4.73,2.65 7.66,7.66 7.66,13.08z"/>
 </g>
</svg>