<svg width="512" height="512" xmlns="http://www.w3.org/2000/svg">

 <g>
  <title>background</title>
  <rect fill="none" id="canvas_background" height="402" width="582" y="-1" x="-1"/>
 </g>
 <g>
  <title>Layer 1</title>
  <path id="svg_1" fill="#f2f4f9" d="m409.96,51.68l0,408.64c0,20.25 -16.42,36.68 -36.68,36.68l-234.56,0c-20.26,0 -36.68,-16.43 -36.68,-36.68l0,-408.64c0,-20.26 16.42,-36.68 36.68,-36.68l234.56,0c20.26,0 36.68,16.42 36.68,36.68z"/>
  <path id="svg_2" fill="#c2d3ee" d="m409.96,51.68l0,408.64c0,20.25 -16.42,36.68 -36.68,36.68l-117.28,0l0,-482l117.28,0c20.26,0 36.68,16.42 36.68,36.68z"/>
  <path id="svg_3" fill="#393c47" d="m373.28,0l-234.56,0c-28.5,0 -51.68,23.18 -51.68,51.68l0,408.64c0,28.49 23.18,51.68 51.68,51.68l234.56,0c28.5,0 51.68,-23.19 51.68,-51.68l0,-408.64c0,-28.5 -23.18,-51.68 -51.68,-51.68zm21.68,460.32c0,11.95 -9.72,21.68 -21.68,21.68l-234.56,0c-11.96,0 -21.68,-9.73 -21.68,-21.68l0,-408.64c0,-11.96 9.72,-21.68 21.68,-21.68l37.59,0l0,15.71c0,8.29 6.72,15 15,15l129.38,0c8.28,0 15,-6.71 15,-15l0,-15.71l37.59,0c11.96,0 21.68,9.72 21.68,21.68l0,408.64z"/>
  <path id="svg_6" fill="#393c47" d="m313.06,447.27c0,8.28 -6.72,15 -15,15l-84.12,0c-8.28,0 -15,-6.72 -15,-15c0,-8.29 6.72,-15 15,-15l84.12,0c8.28,0 15,6.71 15,15z"/>
  <g id="svg_9" fill="#232533">
   <path id="svg_10" d="m298.06,462.27l-42.06,0l0,-30l42.06,0c8.28,0 15,6.71 15,15c0,8.28 -6.72,15 -15,15z"/>
   <path id="svg_11" d="m424.96,51.68l0,408.64c0,28.49 -23.18,51.68 -51.68,51.68l-117.28,0l0,-30l117.28,0c11.96,0 21.68,-9.73 21.68,-21.68l0,-408.64c0,-11.96 -9.72,-21.68 -21.68,-21.68l-37.59,0l0,15.71c0,8.29 -6.72,15 -15,15l-64.69,0l0,-60.71l117.28,0c28.5,0 51.68,23.18 51.68,51.68z"/>
  </g>
 </g>
</svg>