<?xml version="1.0" encoding="iso-8859-1"?>
<!-- Generator: Adobe Illustrator 19.0.0, SVG Export Plug-In . SVG Version: 6.00 Build 0)  -->
<svg version="1.1" id="Capa_1" xmlns="http://www.w3.org/2000/svg" xmlns:xlink="http://www.w3.org/1999/xlink" x="0px" y="0px"
	 viewBox="0 0 394.4 394.4" style="enable-background:new 0 0 394.4 394.4;" xml:space="preserve">
<g>
	<g>
		<path d="M388,127.724h-14.8c-4.4-15.6-20.8-61.2-70.4-89.2c-8.4-4.8-18-8.8-27.6-12.4c-10-3.2-20.8-6-32-7.6
			c-96.8-13.6-143.6,38.4-153.6,52H6.4c-3.6,0-6.4,2.8-6.4,6.4v176c0,3.6,2.8,6.4,6.4,6.4H68v0l-10,21.2c-0.4,0.4-0.4,1.2-0.4,1.6
			c0,0,0,0,0,0.4c0,0.8,0,1.2,0,2v0.4c0,0.8,0.4,1.2,0.8,2l24.8,35.2c-0.8,8-2,32,10,46c5.6,6.8,13.6,10,23.2,10
			c41.2,0,111.2-17.6,111.2-84c0-3.6-2.8-6.4-6.4-6.4c-3.6,0-6.4,2.8-6.4,6.4c0,70-94,70.8-98,70.8c-5.6,0-10-2-13.2-5.6
			c-8.4-10-7.6-30.8-6.8-38c0.4-1.6,0-3.2-1.2-4.8l-18.8-26.8h16.4c3.6,0,6.4-2.8,6.4-6.4c0-3.6-2.8-6.4-6.4-6.4H74.4l6.8-14.4
			c0.4-0.8,0.8-2,0.8-2.8h11.2c36.8,0,67.6-10,89.2-28.4c10.8-9.2,18.8-20.8,24-33.2H228c10.8,13.6,27.2,21.6,44.8,21.6
			s34-8,44.8-21.6h44c-4,18.8-22,42.4-29.6,50.4c-1.2,1.2-1.6,2.8-1.6,4.4v108c0,3.6,2.8,6.4,6.4,6.4c3.6,0,6.4-2.8,6.4-6.4v-105.6
			c6.4-7.2,27.6-33.6,31.2-57.6H388c3.6,0,6.4-2.8,6.4-6.4v-57.2C394.4,130.524,391.6,127.724,388,127.724z M307.2,56.124
			c34,23.6,48.4,56.4,53.2,71.6h-43.6c-2.8-3.6-6-6.8-9.6-9.6V56.124z M250,33.324c7.6,1.6,15.2,3.2,22,5.6c8,2.4,15.2,5.6,22,9.6
			v62c-6.8-2.8-14.4-4.4-22-4.4c-7.6,0-15.2,1.6-22,4.4V33.324z M34.8,246.524h-22v-162.8h22V246.524z M173.2,221.324
			c-18.8,16.4-46.8,24.8-80.4,24.8H48v-162.4h44.8c69.6,0,106,42,106,83.2C198.8,187.724,189.6,206.924,173.2,221.324z M202,127.724
			c-14.8-29.2-47.2-52.8-96-56.8c16.4-16.8,57.2-48.4,130.8-39.6v86.8c-3.6,2.8-6.8,6-9.6,9.6H202z M382.8,184.924h-69.2
			c-2,0-4,1.2-5.6,2.8c-8,12-21.6,18.8-36,18.8c-14.4,0-27.6-7.2-36-18.8c-1.2-1.6-3.2-2.8-5.6-2.8H210c1.2-6,2-12,2-18
			c0-8.8-1.6-17.6-4-26h22.8c2,0,4-1.2,5.6-2.8c8-12,21.6-18.8,36-18.8c14.4,0,27.6,7.2,36,18.8c1.2,1.6,3.2,2.8,5.6,2.8h68.8
			V184.924z"/>
	</g>
</g>
<g>
	<g>
		<path d="M272,134.524c-15.6,0-28.4,12.4-28.4,28.4c0,15.6,12.8,28.4,28.4,28.4c15.6,0,28.4-12.8,28.4-28.4
			C300.4,147.324,287.6,134.524,272,134.524z M272,178.124c-8.4,0-15.2-6.8-15.2-15.2c0-8.4,6.8-15.2,15.2-15.2s15.2,6.8,15.2,15.2
			C287.2,171.324,280.4,178.124,272,178.124z"/>
	</g>
</g>
<g>
</g>
<g>
</g>
<g>
</g>
<g>
</g>
<g>
</g>
<g>
</g>
<g>
</g>
<g>
</g>
<g>
</g>
<g>
</g>
<g>
</g>
<g>
</g>
<g>
</g>
<g>
</g>
<g>
</g>
</svg>
