<svg id="icons" enable-background="new 0 0 64 64" height="512" viewBox="0 0 64 64" width="512" xmlns="http://www.w3.org/2000/svg"><path d="m7 40.5 1.939 2.59-.939 1.41h-4z" fill="#ccd1d9"/><path d="m29 53.5 3-1 3 1 2-1.99 4-.01c3.32 0 6 2.689 6 6v3h-30v-3c0-3.311 2.689-6 6-6l4 .01z" fill="#e6e9ed"/><path d="m41 51.5-2.864.007c3.255.074 5.861 2.729 5.861 5.993v3h3.003v-3c0-3.311-2.68-6-6-6z" fill="#ccd1d9"/><path d="m41 36.51h2v.99.01c0 4.271-2.44 7.97-6 9.79-1.5.771-3.2 1.2-5 1.2s-3.5-.43-5-1.2c-3.561-1.82-6-5.52-6-9.8v-.99h2c0 1.101.9 2 2 2h14c1.1 0 2-.9 2-2z" fill="#eac6bb"/><path d="m41 36.51c0 .747-.419 1.393-1.029 1.736-.263 3.956-2.62 7.339-5.974 9.054-1.075.552-2.255.921-3.499 1.09.492.067.992.11 1.502.11 1.8 0 3.5-.43 5-1.2 3.56-1.82 6-5.52 6-9.79v-.01-.99z" fill="#d3b1a9"/><path d="m41 30.5v6.01c0 1.101-.9 2-2 2h-14c-1.1 0-2-.899-2-2v-6.01c0-1.1.9-2 2-2h14c1.1 0 2 .9 2 2z" fill="#656d78"/><path d="m16 32.5v12l-4-6-3.061 4.59-1.939-2.59-3 4h-3v-12z" fill="#5d9cec"/><path d="m41 30.5h2 1v6.01h-1-2z" fill="#aab2bd"/><path d="m37 51.5v.01l-2 1.99-3-1-3 1-2-1.99v-4.21c1.5.771 3.2 1.2 5 1.2s3.5-.43 5-1.2z" fill="#f5f7fa"/><path d="m12 38.5 4 6h-8l.939-1.41z" fill="#e6e9ed"/><path d="m23 30.5v6.01h-2-1v-6.01h1z" fill="#aab2bd"/><path d="m43 30.5h-2c0-1.1-.9-2-2-2h-14c-1.1 0-2 .9-2 2h-2v-2c0-4.97 4.03-9 9-9h8v4c2.77 0 5 2.24 5 5z" fill="#965353"/><path d="m41 30.5h2v-2c0-2.76-2.23-5-5-5v-4h-3v4c0 1.657 1.343 3 3 3 1.103 0 2 .897 2 2v.279c.594.349 1 .987 1 1.721z" fill="#844747"/><path d="m48 33.5h15v11h-15z" fill="#e6e9ed"/><path d="m48 30.5h15v3h-15z" fill="#ccd1d9"/><g fill="#ac92ec"><path d="m50 17.5h5v5h-5z"/><path d="m42 3.5h10v10h-10z"/><path d="m33 7.5h4v4h-4z"/></g><path d="m20.479 11.49-.02.01h-6.459c-1.1 0-2-.89-2-2 0-1.1.9-2 2-2h3.64c1.29 1.03 2.28 2.4 2.839 3.99z" fill="#a0d468"/><path d="m8 17.5c1.11 0 2 .9 2 2 0 1.11-.89 2-2 2h-1.64-.01c-1.29-1.03-2.279-2.41-2.83-4z" fill="#a0d468"/><path d="m14 7.5c-1.1 0-2 .9-2 2 0 1.11.9 2 2 2h6.46l.02-.01c.34.94.52 1.949.52 3.01 0 4.97-4.03 9-9 9-2.14 0-4.1-.75-5.64-2h1.64c1.11 0 2-.89 2-2 0-1.1-.89-2-2-2h-4.48c-.34-.93-.52-1.94-.52-3 0-4.97 4.03-9 9-9 2.14 0 4.1.75 5.64 2z" fill="#4a89dc"/><path d="m17 58.501c-.553 0-1-.447-1-1 0-3.859 3.141-6.999 7-6.999.553 0 1 .447 1 1s-.447 1-1 1c-2.757 0-5 2.242-5 4.999 0 .553-.447 1-1 1z"/><path d="m27 52.503-4-.001c-.553 0-1-.448-1-1 0-.553.448-1 1-1l4 .001c.553 0 1 .448 1 1 0 .553-.448 1-1 1z"/><path d="m17 61.499c-.553 0-1-.447-1-1v-2.998c0-.553.447-1 1-1s1 .447 1 1v2.998c0 .553-.447 1-1 1z"/><path d="m47 58.501c-.553 0-1-.447-1-1 0-2.757-2.243-4.999-5-4.999-.553 0-1-.447-1-1s.447-1 1-1c3.859 0 7 3.14 7 6.999 0 .553-.447 1-1 1z"/><path d="m37 52.503c-.552 0-1-.447-1-1 0-.552.447-1 1-1l4-.001c.552 0 1 .447 1 1 0 .552-.447 1-1 1z"/><path d="m47 61.499c-.553 0-1-.447-1-1v-2.998c0-.553.447-1 1-1s1 .447 1 1v2.998c0 .553-.447 1-1 1z"/><path d="m27 52.503c-.553 0-1-.447-1-1v-4.202c0-.553.447-1 1-1s1 .447 1 1v4.202c0 .553-.447 1-1 1z"/><path d="m37 52.502c-.553 0-1-.447-1-1v-4.201c0-.553.447-1 1-1s1 .447 1 1v4.201c0 .553-.447 1-1 1z"/><path d="m32 49.501c-6.617 0-12-5.383-12-12 0-.553.447-1 1-1s1 .447 1 1c0 5.514 4.486 10 10 10s10-4.486 10-10c0-.553.447-1 1-1s1 .447 1 1c0 6.617-5.383 12-12 12z"/><path d="m21 38.502c-.553 0-1-.447-1-1v-.993c0-.553.447-1 1-1s1 .447 1 1v.993c0 .553-.447 1-1 1z"/><path d="m43 38.503c-.553 0-1-.447-1-1v-.994c0-.553.447-1 1-1s1 .447 1 1v.994c0 .553-.447 1-1 1z"/><path d="m43 29.501c-.553 0-1-.447-1-1 0-2.206-1.794-4-4-4-.553 0-1-.447-1-1s.447-1 1-1c3.309 0 6 2.691 6 6 0 .553-.447 1-1 1z"/><path d="m38 24.501c-.553 0-1-.447-1-1v-4c0-.553.447-1 1-1s1 .447 1 1v4c0 .553-.447 1-1 1z"/><path d="m38 20.501h-8c-.553 0-1-.447-1-1s.447-1 1-1h8c.553 0 1 .447 1 1s-.447 1-1 1z"/><path d="m21 29.501c-.553 0-1-.447-1-1 0-5.514 4.486-9.999 10-9.999.553 0 1 .447 1 1s-.447 1-1 1c-4.411 0-8 3.588-8 7.999 0 .553-.447 1-1 1z"/><path d="m29 54.502c-.256 0-.512-.098-.707-.293l-2-1.999c-.391-.391-.391-1.023 0-1.414s1.023-.391 1.414 0l2 1.999c.391.391.391 1.023 0 1.414-.195.195-.451.293-.707.293z"/><path d="m29 54.502c-.419 0-.809-.265-.948-.684-.175-.524.108-1.091.632-1.265l3-1c.527-.177 1.09.108 1.265.632s-.108 1.091-.632 1.265l-3 1c-.106.035-.213.052-.317.052z"/><path d="m35 54.502c-.256 0-.512-.098-.707-.293-.391-.391-.391-1.023 0-1.414l2-1.999c.391-.391 1.023-.391 1.414 0s.391 1.023 0 1.414l-2 1.999c-.195.195-.451.293-.707.293z"/><path d="m35 54.502c-.104 0-.211-.017-.316-.052l-3-1c-.523-.174-.807-.74-.632-1.265.175-.523.736-.809 1.265-.632l3 1c.523.174.807.74.632 1.265-.14.419-.53.684-.949.684z"/><path d="m63 45.501h-15c-.553 0-1-.447-1-1v-14c0-.553.447-1 1-1h15c.553 0 1 .447 1 1v14c0 .553-.447 1-1 1zm-14-2h13v-12h-13z"/><path d="m63 34.501h-15c-.553 0-1-.447-1-1s.447-1 1-1h15c.553 0 1 .447 1 1s-.447 1-1 1z"/><path d="m59 38.501h-6.917c-.553 0-1-.447-1-1s.447-1 1-1h6.917c.553 0 1 .447 1 1s-.447 1-1 1z"/><path d="m56 41.501h-3.917c-.553 0-1-.447-1-1s.447-1 1-1h3.917c.553 0 1 .447 1 1s-.447 1-1 1z"/><path d="m12 24.501c-5.514 0-10-4.486-10-10s4.486-10 10-10 10 4.486 10 10-4.486 10-10 10zm0-18c-4.411 0-8 3.589-8 8s3.589 8 8 8 8-3.589 8-8-3.589-8-8-8z"/><path d="m14 12.501c-1.654 0-3-1.346-3-3s1.346-3 3-3c.553 0 1 .447 1 1s-.447 1-1 1c-.552 0-1 .448-1 1s.448 1 1 1c.553 0 1 .447 1 1s-.447 1-1 1z"/><path d="m17.657 8.501h-3.657c-.553 0-1-.447-1-1s.447-1 1-1h3.657c.553 0 1 .447 1 1s-.447 1-1 1z"/><path d="m20.46 12.501h-6.46c-.553 0-1-.447-1-1s.447-1 1-1h6.46c.553 0 1 .447 1 1s-.447 1-1 1z"/><path d="m8 22.501c-.553 0-1-.447-1-1s.447-1 1-1c.552 0 1-.448 1-1s-.448-1-1-1c-.553 0-1-.447-1-1s.447-1 1-1c1.654 0 3 1.346 3 3s-1.346 3-3 3z"/><path d="m8 22.501h-1.656c-.553 0-1-.447-1-1s.447-1 1-1h1.656c.553 0 1 .447 1 1s-.447 1-1 1z"/><path d="m8 18.501h-4.487c-.553 0-1-.447-1-1s.447-1 1-1h4.487c.553 0 1 .447 1 1s-.447 1-1 1z"/><path d="m16 45.501h-15c-.553 0-1-.447-1-1v-12c0-.553.447-1 1-1h15c.553 0 1 .447 1 1v12c0 .553-.447 1-1 1zm-14-2h13v-10h-13z"/><path d="m3.999 45.501c-.209 0-.419-.065-.599-.2-.442-.331-.532-.958-.2-1.399l3-4c.331-.442.959-.531 1.399-.2.442.331.532.958.2 1.399l-3 4c-.195.262-.495.4-.8.4z"/><path d="m8.942 44.089c-.305 0-.604-.138-.801-.4l-1.941-2.588c-.331-.441-.242-1.068.2-1.399.44-.332 1.068-.243 1.399.2l1.941 2.588c.331.441.242 1.068-.2 1.399-.179.134-.389.2-.598.2z"/><path d="m7.999 45.501c-.19 0-.383-.055-.554-.168-.46-.307-.584-.927-.277-1.387l4-6c.305-.459.926-.583 1.387-.277.46.307.584.927.277 1.387l-4 6c-.192.289-.51.445-.833.445z"/><path d="m16.001 45.501c-.323 0-.641-.156-.833-.445l-4-6c-.307-.46-.183-1.08.277-1.387.46-.306 1.08-.182 1.387.277l4 6c.307.46.183 1.08-.277 1.387-.171.113-.364.168-.554.168z"/><path d="m5.03 37.501c-.553 0-1.005-.447-1.005-1s.442-1 .994-1h.011c.552 0 1 .447 1 1s-.448 1-1 1z"/><path d="m52 14.501h-10c-.553 0-1-.447-1-1v-10c0-.553.447-1 1-1h10c.553 0 1 .447 1 1v10c0 .553-.447 1-1 1zm-9-2h8v-8h-8z"/><path d="m55 23.501h-5c-.553 0-1-.447-1-1v-5c0-.553.447-1 1-1h5c.553 0 1 .447 1 1v5c0 .553-.447 1-1 1zm-4-2h3v-3h-3z"/><path d="m37 12.501h-4c-.553 0-1-.447-1-1v-4c0-.553.447-1 1-1h4c.553 0 1 .447 1 1v4c0 .553-.447 1-1 1zm-3-2h2v-2h-2z"/><path d="m39.001 39.504h-14.002c-1.654 0-3-1.346-3-3v-6.005c0-1.654 1.346-3 3-3h14.002c1.654 0 3 1.346 3 3v6.005c0 1.654-1.346 3-3 3zm-14.002-10.005c-.552 0-1 .448-1 1v6.005c0 .552.448 1 1 1h14.002c.552 0 1-.448 1-1v-6.005c0-.552-.448-1-1-1z"/><path d="m22.999 31.499h-2.998c-.553 0-1-.447-1-1s.447-1 1-1h2.998c.553 0 1 .447 1 1s-.447 1-1 1z"/><path d="m22.999 37.504h-2.998c-.553 0-1-.447-1-1s.447-1 1-1h2.998c.553 0 1 .447 1 1s-.447 1-1 1z"/><path d="m20.001 37.504c-.553 0-1-.447-1-1v-6.005c0-.553.447-1 1-1s1 .447 1 1v6.005c0 .553-.447 1-1 1z"/><path d="m21 31.499c-.553 0-1-.447-1-1v-1.998c0-.553.447-1 1-1s1 .447 1 1v1.998c0 .553-.447 1-1 1z"/><path d="m43.999 31.499h-2.998c-.553 0-1-.447-1-1s.447-1 1-1h2.998c.553 0 1 .447 1 1s-.447 1-1 1z"/><path d="m43.999 37.504h-2.998c-.553 0-1-.447-1-1s.447-1 1-1h2.998c.553 0 1 .447 1 1s-.447 1-1 1z"/><path d="m43.999 37.504c-.553 0-1-.447-1-1v-6.005c0-.553.447-1 1-1s1 .447 1 1v6.005c0 .553-.447 1-1 1z"/><path d="m43 31.499c-.553 0-1-.447-1-1v-1.998c0-.553.447-1 1-1s1 .447 1 1v1.998c0 .553-.447 1-1 1z"/><path d="m37 34.502h-10c-.553 0-1-.447-1-1s.447-1 1-1h10c.553 0 1 .447 1 1s-.447 1-1 1z"/></svg>