<svg id="Ebene_1" data-name="Ebene 1" xmlns="http://www.w3.org/2000/svg" width="213.07778mm" height="132.29167mm" viewBox="0 0 604 375">
  <title>Zeichenfläche 1</title>
  <g>
    <path d="M7.25007,156.30328v72.75861c0,12.73274,24.556,23.64653,63.66378,30.01292-28.19395-10.0043-45.47413-22.73707-45.47413-39.10775,0-41.8362,119.14221-63.66378,236.46548-63.66378a259.64277,259.64277,0,0,1,15.46121-87.31034C120.9354,80.81622,7.25007,115.37656,7.25007,156.30328Z" style="fill: #4ebeee"/>
    <path d="M43.62937,219.96706c0,14.55171,59.11637,39.10775,173.71117,44.56466,24.556-.9095,49.11208-1.819,71.84914-3.63794-8.18536-9.09483-14.55174-19.09916-17.28018-30.92242a145.37378,145.37378,0,0,1-4.54741-19.09912H261.9052A788.20929,788.20929,0,0,1,93.65092,192.68258C60.90956,201.77741,43.62937,212.6912,43.62937,219.96706Z" style="fill: #4ebeee"/>
    <g>
      <path d="M391.89655,76.338c-32.05841,0-64.64494.90061-93.98992,2.69906.83266-2.27276.97463-4.52993,1.86942-6.767,29.10344-1.819,62.54082-2.72844,94.37272-2.72844,110.95688,0,202.60116,24.556,202.60116,54.569v.62958C587.84432,97.57191,496.4,76.338,391.89655,76.338Z" style="fill: #4ebeee"/>
      <path d="M281.77675,160.48982a233.38824,233.38824,0,0,1,6.68932-55.12368c25.93811-1.23506,52.9853-1.85534,80.66051-1.85534,115.34047,0,209.30013,23.83442,219.79052,54.038-6.98589,55.79609-31.15116,105.89316-66.12744,143.9109a15.80523,15.80523,0,0,1-10.51645,4.5474c-5.45688,0-10.51642-3.638-10.51642-9.09484v-9.09479c0-5.45688-2.21631-9.09484-7.67321-9.09484a30.59047,30.59047,0,0,0-22.02628,9.09484,31.43853,31.43853,0,0,1-22.38166,9.09479,185.55641,185.55641,0,0,1-58.93865-9.09479l-64.48443-21.8276c-17.28018-5.45688-30.878-19.09912-35.42539-36.37932C285.37029,207.78294,281.77675,184.13638,281.77675,160.48982Z" style="fill: #4ebeee"/>
    </g>
  </g>
</svg>
