<svg height="512" viewBox="0 0 52 60" width="512" xmlns="http://www.w3.org/2000/svg"><g id="Page-1" fill="none" fill-rule="evenodd"><g id="023---AR-Card" fill="rgb(0,0,0)" fill-rule="nonzero"><path id="Shape" d="m40.172 39.2 6.219-15.839c.1319749-.332955.0758075-.7110666-.1472522-.9912822-.2230596-.2802156-.5789468-.4197417-.933017-.3657908-.3540701.053951-.6522512.2931398-.7817308.627073l-5.7 14.525-2.094-3.183c-.7220397-1.2215647-2.0350004-1.9715565-3.454-1.973h-14.562c-1.3996365.000756-2.696754.7341073-3.419 1.933l-2.122 3.226-5.7-14.524c-.12947963-.3339332-.42766068-.573122-.78173083-.627073-.35407016-.0539509-.70995734.0855752-.933017.3657908-.22305967.2802156-.27922709.6583272-.14725217.9912822l6.212 15.835-10.628 16.151c-.60673835.9221197-.65808304 2.1029426-.13367478 3.074247.52440825.9713043 1.53984772 1.5761694 2.64367478 1.574753h44.58c1.1038271.0014164 2.1192665-.6034487 2.6436748-1.574753.5244082-.9713044.4730635-2.1521273-.1336748-3.074247zm9 18.27c-.1705658.3273518-.5109079.5307835-.88.526h-44.582c-.36742179-.0003021-.70508585-.2020694-.87942991-.5254932-.17434406-.3234239-.15728484-.7164074.04442991-1.0235068l9.847-14.97.347.884c.2029696.512065.781816.7635752 1.2946368.562523.5128209-.2010522.7664952-.7789535.5673632-1.292523l-.863-2.2 2.926-4.448c.3611649-.6091951 1.0167919-.9828074 1.725-.983h14.562c.7269491.0063192 1.3952578.4001371 1.753 1.033l2.9 4.405-.863 2.2c-.1319749.332955-.0758075.7110666.1472522.9912822.2230596.2802156.5789468.4197417.933017.3657908.3540701-.053951.6522512-.2931398.7817308-.627073l.346-.883 9.848 14.969c.2047337.3049499.2213414.6989008.043 1.02z"/><path id="Shape" d="m25 18c0 .5522847.4477153 1 1 1s1-.4477153 1-1v-2.4l3.474-1.867c.4865629-.261783.668783-.8684371.407-1.355s-.8684371-.668783-1.355-.407l-3.526 1.894-3.526-1.9c-.4865629-.261783-1.093217-.0795629-1.355.407s-.0795629 1.093217.407 1.355l3.474 1.873z"/><path id="Shape" d="m12 8v14c.000193.3677348.2022003.7056937.526.88l13 7c.2959236.1593002.6520764.1593002.948 0l13-7c.3237997-.1743063.525807-.5122652.526-.88v-14c-.0001367-.35174583-.1850653-.6775544-.487-.858-.013-.008-.028-.011-.041-.018l-13-7c-.2959236-.15930021-.6520764-.15930021-.948 0l-13 7c-.013.007-.028.01-.041.018-.3003995.18143499-.4837066.50706124-.483.858zm2 1.673 2.526 1.358c.4865629.261783 1.093217.0795629 1.355-.407s.0795629-1.09321703-.407-1.355l-2.363-1.269 10.889-5.864 10.889 5.864-2.363 1.27c-.4865629.26178297-.668783.8684371-.407 1.355s.8684371.668783 1.355.407l2.526-1.359v11.727l-11 5.926v-3.326c0-.5522847-.4477153-1-1-1s-1 .4477153-1 1v3.326l-11-5.926z"/><path id="Shape" d="m33.864 38.5c-.1782705-.3087753-.5074582-.4992774-.864-.5h-14c-.3565418.0007226-.6857295.1912247-.864.5l-7 12c-.178453.3090879-.1786463.6898553-.0005074.9991243.1781389.3092689.5076037.5001532.8645074.5008757h28c.3569037-.0007225.6863685-.1916068.8645074-.5008757.1781389-.309269.1779456-.6900364-.0005074-.9991243zm-9.083 1.5h2.438l.5 2h-3.438zm-1 4h4.438l.5 2h-5.438zm-3.562 6h-6.478l1.167-2h5.811zm1-4h-5.145l1.167-2h4.478zm-2.811-4 1.166-2h3.145l-.5 2zm3.873 8 .5-2h6.438l.5 2zm7-10h3.145l1.166 2h-3.811zm1 4h4.478l1.167 2h-5.145zm1.5 6-.5-2h5.811l1.167 2z"/><path id="Shape" d="m2.635 13.069c-.24789518.0967704-.44699512.2883569-.55322514.5323481s-.11082756.5202611-.01277486.7676519l1.57 4c.12264552.3433505.42243938.5927399.78237853.6508369.35993915.0580971.72297161-.0843068.94741365-.3716345.22444205-.2873278.2747186-.6740366.13120782-1.0092024l-1.569-4c-.09602741-.2476413-.28662926-.4469063-.5297606-.553839-.24313135-.1069328-.51881558-.1127473-.7662394-.016161z"/><path id="Shape" d="m48.069 13.635-1.569 4c-.1435108.3351658-.0932342.7218746.1312078 1.0092024.2244421.2873277.5874745.4297316.9474137.3716345.3599391-.058097.659733-.3074864.7823785-.6508369l1.57-4c.1319749-.332955.0758075-.7110666-.1472522-.9912822-.2230596-.2802156-.5789468-.4197417-.933017-.3657908-.3540701.053951-.6522512.2931398-.7817308.627073z"/></g></g></svg>