<svg height="512pt" viewBox="0 -20 512.001 512" width="512pt" xmlns="http://www.w3.org/2000/svg"><path d="m466.390625 64.578125c-26.839844-11.582031-64.25-20.664063-108.179687-26.269531-4.121094-.527344-7.867188 2.382812-8.390626 6.492187-.523437 4.109375 2.382813 7.863281 6.492188 8.390625 96.660156 12.324219 140.6875 38.367188 140.6875 57.34375 0 7.589844-6.71875 14.527344-13.984375 19.8125-11.011719-19.847656-32.175781-33.316406-56.4375-33.316406-35.5625 0-64.5 28.933594-64.5 64.5s28.9375 64.5 64.5 64.5c1.304687 0 2.59375-.050781 3.875-.125v21.707031c0 4.144531 3.359375 7.5 7.5 7.5 4.144531 0 7.5-3.355469 7.5-7.5v-24.40625c26.386719-8.089843 45.625-32.675781 45.625-61.675781 0-5.863281-.800781-11.542969-2.273437-16.945312 3.019531-2.019532 5.761718-4.082032 8.195312-6.183594v249.585937c0 12.265625-17.5625 25.671875-48.191406 36.777344-1.0625.382813-1.886719-.027344-2.289063-.308594-.398437-.277343-1.066406-.914062-1.066406-2.046875v-140.273437c0-4.140625-3.359375-7.5-7.5-7.5s-7.5 3.359375-7.5 7.5v47.570312c-23.773437-6.53125-52.074219-11.746093-82.507813-15.171875-7.171874-10.277344-16.117187-19.398437-26.582031-26.914062 4.667969-8.269532 7.800781-17.496094 9.039063-27.316406h5.828125c12.523437 0 22.714843-10.191407 22.714843-22.714844v-10.585938c0-12.527344-10.191406-22.714844-22.714843-22.714844h-5.210938v-6.167968c7.765625-1.785156 13.582031-8.738282 13.582031-17.039063v-12.902343c0-27.035157-21.996093-49.03125-49.035156-49.03125h-24.304687c-4.144531 0-7.5 3.355468-7.5 7.5 0 4.140624 3.355469 7.5 7.5 7.5h24.304687c18.769532 0 34.035156 15.265624 34.035156 34.03125v12.902343c0 1.375-1.121093 2.5-2.5 2.5h-30.953124c-7.371094 0-13.429688 5.734375-13.953126 12.976563h-51.460937c-20.039063 0-36.339844-16.300782-36.339844-36.339844 0-14.375 11.695313-26.070312 26.070313-26.070312h16.273437c4.144531 0 7.5-3.359376 7.5-7.5 0-4.140626-3.355469-7.5-7.5-7.5h-16.273437c-22.644532 0-41.070313 18.425781-41.070313 41.070312 0 7.671875 1.703125 14.953125 4.734375 21.496094-2.0625 3.578125-3.148437 7.621094-3.148437 11.792968v10.78125h-5.210938c-12.527343 0-22.714843 10.1875-22.714843 22.714844v10.585938c0 12.527344 10.1875 22.714844 22.714843 22.714844h.675781c1.230469 3.707031 3.660157 6.871093 6.839844 9.015624 1.625 6.414063 4.09375 12.574219 7.328125 18.3125-10.476562 7.523438-19.417969 16.636719-26.59375 26.910157-11.417969 1.285156-22.570312 2.816406-33.242187 4.574219-5.640625-22.222657-25.464844-38.835938-49.230469-39.621094v-113.367188c0-7.542968-4.800781-14.210937-11.949219-16.59375-34.1875-11.386718-54.597656-25.964844-54.597656-39 0-12.792968 20.585938-31.253906 77.664062-45.71875 2.910157 29.855469 28.148438 53.269532 58.757813 53.269532 32.558594 0 59.042969-26.484376 59.042969-59.042969 0-3.636719-.347656-7.195313-.980469-10.65625 15.261719-.832031 30.863281-1.277344 46.515625-1.277344 22.433594 0 44.6875.863281 66.144531 2.566406.203125.019531.402344.027344.601563.027344 3.875 0 7.15625-2.980469 7.46875-6.910156.328125-4.128907-2.753906-7.742188-6.882813-8.070313-21.851562-1.734375-44.503906-2.613281-67.332031-2.613281-17.277344 0-34.511719.519531-51.296875 1.515625-9.515625-19.867188-29.820313-33.625-53.28125-33.625-29.210937 0-53.519531 21.328125-58.210937 49.222656-36.382813 8.867188-93.210938 28.042969-93.210938 61.3125v277.453125c0 19.507813 20.082031 37.101563 58.078125 50.878907 1.933594.703124 3.949219 1.046874 5.957031 1.046874 3.550782 0 7.070313-1.082031 10.054688-3.171874 4.667968-3.273438 7.457031-8.628907 7.457031-14.332032v-37.785156c27.527344-.914062 49.761719-23.066406 50.796875-50.566406 7.207031-1.195313 14.648438-2.289063 22.25-3.269532-6.9375 14.707032-10.671875 30.988282-10.671875 47.871094v85.585938c0 4.144531 3.359375 7.5 7.5 7.5s7.5-3.355469 7.5-7.5v-30.664063h33.246094v30.664063c0 4.144531 3.355469 7.5 7.5 7.5 4.140625 0 7.5-3.355469 7.5-7.5v-88.164063c0-4.144531-3.359375-7.5-7.5-7.5-4.144531 0-7.5 3.355469-7.5 7.5v42.5h-33.246094v-39.921875c0-31.460937 14.976563-60.503906 40.320313-78.761718 2.902343 3.363281 6.101562 6.484374 9.578124 9.300781 13.289063 10.761719 30.046876 16.691406 47.179688 16.691406 22.644531 0 42.960938-10.097656 56.726562-26.011719 25.339844 18.261719 40.351563 47.394532 40.351563 78.78125v39.921875h-33.246094v-42.5c0-4.144531-3.359375-7.5-7.5-7.5s-7.5 3.355469-7.5 7.5v88.164063c0 4.144531 3.359375 7.5 7.5 7.5s7.5-3.355469 7.5-7.5v-30.664063h33.246094v30.664063c0 4.144531 3.355469 7.5 7.5 7.5 4.140625 0 7.5-3.355469 7.5-7.5v-85.585938c0-16.859375-3.757813-33.148437-10.710937-47.878906 27.128906 3.511719 52.121093 8.46875 73.085937 14.503906v77.125c0 5.699219 2.789063 11.058594 7.457031 14.332032 2.984375 2.089843 6.503906 3.167968 10.058594 3.167968 2.003906 0 4.019531-.34375 5.957031-1.042968 37.992188-13.777344 58.074219-31.371094 58.074219-50.882813v-277.449219c0-17.4375-15.34375-32.898437-45.609375-45.957031zm-39.8125 146.453125c-27.292969 0-49.5-22.207031-49.5-49.5s22.207031-49.5 49.5-49.5c27.296875 0 49.5 22.207031 49.5 49.5s-22.203125 49.5-49.5 49.5zm-275.15625-196.03125c24.285156 0 44.042969 19.757812 44.042969 44.042969 0 24.285156-19.757813 44.042969-44.042969 44.042969s-44.042969-19.757813-44.042969-44.042969c0-24.285157 19.757813-44.042969 44.042969-44.042969zm-85.941406 409.460938c-.398438.277343-1.226563.691406-2.289063.304687-30.628906-11.105469-48.191406-24.507813-48.191406-36.777344v-249.65625c10.898438 9.460938 27.632812 18.035157 49.855469 25.4375 1.011719.335938 1.691406 1.285157 1.691406 2.359375v115.007813c-22.625 5.886719-39.375 26.484375-39.375 50.921875s16.75 45.035156 39.375 50.921875v39.433593c0 1.128907-.667969 1.765626-1.066406 2.046876zm14.300781-54.792969c-20.734375 0-37.609375-16.871094-37.609375-37.609375 0-20.738282 16.875-37.609375 37.609375-37.609375 20.738281 0 37.613281 16.871093 37.613281 37.609375 0 20.738281-16.875 37.609375-37.613281 37.609375zm256.449219-150.378907c4.253906 0 7.714843 3.460938 7.714843 7.714844v10.585938c0 4.253906-3.460937 7.714844-7.714843 7.714844h-5.210938v-26.015626zm-143.183594 38.015626c-1.378906 0-2.5-1.121094-2.5-2.5v-18c0-1.378907 1.121094-2.5 2.5-2.5h38.785156c1.378907 0 2.5 1.121093 2.5 2.5v18c0 1.378906-1.121093 2.5-2.5 2.5zm-24.996094-19.714844v-10.585938c0-4.253906 3.460938-7.714844 7.71875-7.714844h5.210938v4.871094c-3.339844 3.191406-5.433594 7.671875-5.433594 12.644532v8.488281c-4.152344-.117188-7.496094-3.523438-7.496094-7.703125zm87.949219 73.300781c-13.90625 0-26.960938-4.613281-37.742188-13.347656-8.242187-6.671875-14.558593-15.445313-18.320312-25.238281h31.894531c9.648438 0 17.5-7.851563 17.5-17.5v-18c0-9.648438-7.851562-17.5-17.5-17.5h-35.851562v-21.339844c9.148437 8.429687 21.359375 13.59375 34.753906 13.59375h52.4375c7.375 0 13.433594-5.734375 13.953125-12.980469h18.894531v52.292969c0 33.09375-26.925781 60.019531-60.019531 60.019531zm0 0"/><path d="m284.332031 238.304688c-4.140625 0-7.5 3.402343-7.5 7.542968 0 4.144532 3.359375 7.5 7.5 7.5s7.5-3.355468 7.5-7.5v-.085937c0-4.144531-3.359375-7.457031-7.5-7.457031zm0 0"/><path d="m264 253.082031c-4.144531 0-7.5 3.359375-7.5 7.5v12.5h-3.5c-4.144531 0-7.5 3.359375-7.5 7.5s3.355469 7.5 7.5 7.5h11c4.140625 0 7.5-3.359375 7.5-7.5v-20c0-4.140625-3.359375-7.5-7.5-7.5zm0 0"/><path d="m229.046875 355.621094c-4.144531 0-7.5 3.402344-7.5 7.542968 0 4.140626 3.355469 7.5 7.5 7.5 4.140625 0 7.5-3.359374 7.5-7.5v-.085937c0-4.144531-3.359375-7.457031-7.5-7.457031zm0 0"/><path d="m256 355.621094c-4.144531 0-7.5 3.402344-7.5 7.542968 0 4.140626 3.355469 7.5 7.5 7.5 4.140625 0 7.5-3.359374 7.5-7.5v-.085937c0-4.144531-3.359375-7.457031-7.5-7.457031zm0 0"/><path d="m282.953125 355.621094c-4.144531 0-7.5 3.402344-7.5 7.542968 0 4.140626 3.355469 7.5 7.5 7.5 4.140625 0 7.5-3.359374 7.5-7.5v-.085937c0-4.144531-3.359375-7.457031-7.5-7.457031zm0 0"/><path d="m138.132812 82.023438c1.964844 1.113281 4.152344 1.671874 6.34375 1.671874 2.273438 0 4.542969-.601562 6.558594-1.796874l19.890625-11.824219c3.925781-2.335938 6.273438-6.457031 6.273438-11.03125 0-4.570313-2.347657-8.691407-6.273438-11.027344l-19.890625-11.824219c-3.957031-2.351562-8.898437-2.402344-12.902344-.125-4 2.277344-6.484374 6.550782-6.484374 11.152344v23.648438c-.003907 4.605468 2.484374 8.878906 6.484374 11.15625zm8.511719-30.992188 13.480469 8.011719-13.480469 8.011719zm0 0"/><path d="m453.753906 137.976562c-4.175781-4.167968-9.71875-6.464843-15.609375-6.464843-4.15625 0-8.140625 1.144531-11.597656 3.285156-3.453125-2.140625-7.441406-3.285156-11.601563-3.285156-6.019531 0-11.851562 2.503906-16.003906 6.867187-8.1875 8.601563-7.921875 22.527344.59375 31.042969l18.679688 18.679687c2.226562 2.226563 5.183594 3.453126 8.332031 3.453126 3.144531 0 6.105469-1.226563 8.328125-3.453126l18.882812-18.886718c4.171876-4.171875 6.46875-9.71875 6.46875-15.617188 0-5.898437-2.296874-11.445312-6.46875-15.617187 0 0 0-.003907-.003906-.003907zm-10.601562 20.632813-16.605469 16.609375-16.40625-16.402344c-2.808594-2.8125-2.960937-7.339844-.335937-10.097656 1.355468-1.421875 3.179687-2.207031 5.140624-2.207031 1.890626 0 3.667969.738281 5.007813 2.074219l1.289063 1.289062c1.40625 1.410156 3.316406 2.199219 5.304687 2.199219h.003906c1.992188 0 3.902344-.796875 5.308594-2.207031l1.269531-1.273438c1.34375-1.34375 3.125-2.082031 5.015625-2.082031 1.886719 0 3.667969.738281 5.011719 2.078125 1.335938 1.339844 2.074219 3.117187 2.074219 5.007812s-.738281 3.671875-2.078125 5.011719zm0 0"/><path d="m91.28125 324.558594h-4v-4c0-4.140625-3.355469-7.5-7.5-7.5-4.140625 0-7.5 3.359375-7.5 7.5v4h-4c-4.140625 0-7.5 3.359375-7.5 7.5s3.359375 7.5 7.5 7.5h4v4c0 4.140625 3.359375 7.5 7.5 7.5 4.144531 0 7.5-3.359375 7.5-7.5v-4h4c4.144531 0 7.5-3.359375 7.5-7.5s-3.355469-7.5-7.5-7.5zm0 0"/></svg>